<svg width="15" height="19" viewBox="0 0 15 19" fill="none" xmlns="http://www.w3.org/2000/svg">
<path fill-rule="evenodd" clip-rule="evenodd" d="M7.54564 19L7.53804 18.9933L7.54564 18.9865V19ZM7.53045 2.25241V0.000700133C-0.442878 0.373311 -4.3857 8.39188 7.53045 18.9865V11.2619C4.93279 11.2542 2.82949 9.24029 2.82949 6.75717C2.82949 4.27405 4.93279 2.26017 7.53045 2.25241ZM7.54564 0L7.53804 0.000347701L7.54564 0.000700133V0Z" fill="#04C500"/>
<path fill-rule="evenodd" clip-rule="evenodd" d="M7.45436 19L7.46195 18.9933L7.45436 18.9865V19ZM7.46953 2.25241V0.000699531C15.4429 0.373302 19.3857 8.39188 7.46953 18.9865V11.2619C10.0672 11.2541 12.1704 9.24027 12.1704 6.75717C12.1704 4.27407 10.0672 2.26021 7.46953 2.25241ZM7.45436 0L7.46195 0.000347404L7.45436 0.000699531V0Z" fill="#38D430"/>
</svg>
